<svg width="92" height="60" viewBox="0 0 92 60" fill="none" xmlns="http://www.w3.org/2000/svg">
<rect y="27" width="92" height="7" fill="#3D8C2E"/>
<rect x="17.5" y="1.5" width="57" height="57" fill="#C4C4C4" stroke="#3D8C2E" stroke-width="3"/>
<path d="M35.925 30.75V38H33.75V20.5H38.45C39.8667 20.5 40.9333 20.8167 41.65 21.45C42.3833 22.0667 42.75 23.05 42.75 24.4V26.8C42.75 28.6833 42 29.8583 40.5 30.325L43.975 38H41.6L38.375 30.75H35.925ZM40.575 24.175C40.575 23.5417 40.425 23.0833 40.125 22.8C39.8417 22.5167 39.3833 22.375 38.75 22.375H35.925V28.875H38.75C39.3833 28.875 39.8417 28.7333 40.125 28.45C40.425 28.15 40.575 27.6833 40.575 27.05V24.175ZM55.926 38C55.7093 38 55.4676 37.9333 55.201 37.8C54.951 37.6667 54.7343 37.4833 54.551 37.25C54.1676 37.75 53.6593 38 53.026 38H50.801C49.5343 38 48.6093 37.75 48.026 37.25C47.4593 36.7333 47.176 35.8583 47.176 34.625V34.125C47.176 31.5417 48.3926 30.25 50.826 30.25H53.926V29C53.926 28.4833 53.7676 28.0833 53.451 27.8C53.1343 27.5167 52.6676 27.375 52.051 27.375H48.176V25.5H51.801C53.251 25.5 54.3176 25.8167 55.001 26.45C55.701 27.0833 56.051 28.1 56.051 29.5V35.5C56.051 35.75 56.1426 35.9417 56.326 36.075C56.526 36.1917 56.851 36.25 57.301 36.25V38H55.926ZM52.776 36.125C53.276 36.125 53.5926 36.0083 53.726 35.775C53.8593 35.5417 53.926 35.2417 53.926 34.875V32.125H50.801C50.3676 32.125 50.0093 32.2667 49.726 32.55C49.4426 32.8333 49.301 33.1917 49.301 33.625V34.875C49.301 35.3083 49.401 35.625 49.601 35.825C49.801 36.025 50.1176 36.125 50.551 36.125H52.776Z" fill="#292929"/>
<path d="M26.086 14.578C26.086 15.076 25.966 15.439 25.726 15.667C25.486 15.889 25.096 16 24.556 16H24.304C23.764 16 23.374 15.889 23.134 15.667C22.894 15.439 22.774 15.076 22.774 14.578V13.822C22.774 13.3 22.969 12.931 23.359 12.715C23.041 12.493 22.882 12.145 22.882 11.671V11.104C22.882 10.624 23.008 10.27 23.26 10.042C23.512 9.814 23.872 9.7 24.34 9.7H24.52C24.988 9.7 25.348 9.814 25.6 10.042C25.852 10.27 25.978 10.624 25.978 11.104V11.671C25.978 12.145 25.819 12.493 25.501 12.715C25.891 12.931 26.086 13.3 26.086 13.822V14.578ZM24.232 10.375C24.028 10.381 23.881 10.438 23.791 10.546C23.707 10.648 23.665 10.807 23.665 11.023V11.761C23.665 11.953 23.719 12.109 23.827 12.229C23.941 12.343 24.082 12.406 24.25 12.418H24.556C24.742 12.418 24.895 12.358 25.015 12.238C25.135 12.118 25.195 11.959 25.195 11.761V11.023C25.195 10.795 25.144 10.63 25.042 10.528C24.946 10.426 24.784 10.375 24.556 10.375H24.232ZM25.303 13.741C25.303 13.543 25.243 13.387 25.123 13.273C25.003 13.153 24.844 13.093 24.646 13.093H24.214C24.016 13.093 23.857 13.153 23.737 13.273C23.617 13.387 23.557 13.543 23.557 13.741V14.668C23.557 14.89 23.605 15.055 23.701 15.163C23.797 15.271 23.947 15.325 24.151 15.325H24.637C24.865 15.325 25.033 15.274 25.141 15.172C25.249 15.064 25.303 14.896 25.303 14.668V13.741ZM30.9464 14.578C30.9464 15.076 30.8264 15.439 30.5864 15.667C30.3464 15.889 29.9564 16 29.4164 16H29.1644C28.6244 16 28.2344 15.889 27.9944 15.667C27.7544 15.439 27.6344 15.076 27.6344 14.578V13.822C27.6344 13.3 27.8294 12.931 28.2194 12.715C27.9014 12.493 27.7424 12.145 27.7424 11.671V11.104C27.7424 10.624 27.8684 10.27 28.1204 10.042C28.3724 9.814 28.7324 9.7 29.2004 9.7H29.3804C29.8484 9.7 30.2084 9.814 30.4604 10.042C30.7124 10.27 30.8384 10.624 30.8384 11.104V11.671C30.8384 12.145 30.6794 12.493 30.3614 12.715C30.7514 12.931 30.9464 13.3 30.9464 13.822V14.578ZM29.0924 10.375C28.8884 10.381 28.7414 10.438 28.6514 10.546C28.5674 10.648 28.5254 10.807 28.5254 11.023V11.761C28.5254 11.953 28.5794 12.109 28.6874 12.229C28.8014 12.343 28.9424 12.406 29.1104 12.418H29.4164C29.6024 12.418 29.7554 12.358 29.8754 12.238C29.9954 12.118 30.0554 11.959 30.0554 11.761V11.023C30.0554 10.795 30.0044 10.63 29.9024 10.528C29.8064 10.426 29.6444 10.375 29.4164 10.375H29.0924ZM30.1634 13.741C30.1634 13.543 30.1034 13.387 29.9834 13.273C29.8634 13.153 29.7044 13.093 29.5064 13.093H29.0744C28.8764 13.093 28.7174 13.153 28.5974 13.273C28.4774 13.387 28.4174 13.543 28.4174 13.741V14.668C28.4174 14.89 28.4654 15.055 28.5614 15.163C28.6574 15.271 28.8074 15.325 29.0114 15.325H29.4974C29.7254 15.325 29.8934 15.274 30.0014 15.172C30.1094 15.064 30.1634 14.896 30.1634 14.668V13.741Z" fill="black"/>
</svg>
